PathFileType	4	(X/Y/Z)	C:\Users\dbl\Desktop\20210112\20210112\bx_n_5_502.trc
DataRate	CameraRate	NumFrames	NumMarkers	Units	OrigDataRate	OrigDataStartFrame	OrigNumFrames
50.00	50.00	       5	43	mm	50.00	62	       489
Frame#	Time	Top.Head			R.Acromium			L.Acromium			Sternum			R.ASIS			L.ASIS			V.Sacral			R.Thigh.Upper			R.Thigh.Front			R.Thigh.Rear			R.Knee.Lat			R.Knee.Med			R.Shank.Upper			R.Shank.Front			R.Shank.Rear			R.Ankle.Lat			R.Midfoot.Lat			R.Toe.Lat			R.Toe.Tip			R.Toe.Med			R.Ankle.Med			R.Midfoot.Sup			R.Heel			L.Thigh.Upper			L.Thigh.Front			L.Thigh.Rear			L.Knee.Lat			L.Knee.Med			L.Shank.Upper			L.Shank.Front			L.Shank.Rear			L.Ankle.Lat			L.Midfoot.Lat			L.Toe.Lat			L.Toe.Tip			L.Toe.Med			L.Ankle.Med			L.Midfoot.Sup			L.Heel			origin1 front left			origin2 front right			origin 3 back right			origin 4 back leftt			
		X1	Y1	Z1	X2	Y2	Z2	X3	Y3	Z3	X4	Y4	Z4	X5	Y5	Z5	X6	Y6	Z6	X7	Y7	Z7	X8	Y8	Z8	X9	Y9	Z9	X10	Y10	Z10	X11	Y11	Z11	X12	Y12	Z12	X13	Y13	Z13	X14	Y14	Z14	X15	Y15	Z15	X16	Y16	Z16	X17	Y17	Z17	X18	Y18	Z18	X19	Y19	Z19	X20	Y20	Z20	X21	Y21	Z21	X22	Y22	Z22	X23	Y23	Z23	X24	Y24	Z24	X25	Y25	Z25	X26	Y26	Z26	X27	Y27	Z27	X28	Y28	Z28	X29	Y29	Z29	X30	Y30	Z30	X31	Y31	Z31	X32	Y32	Z32	X33	Y33	Z33	X34	Y34	Z34	X35	Y35	Z35	X36	Y36	Z36	X37	Y37	Z37	X38	Y38	Z38	X39	Y39	Z39	X40	Y40	Z40	X41	Y41	Z41	X42	Y42	Z42	X43	Y43	Z43	

62	1.220	-409.42627	140.50162	1778.93909	-542.85107	-59.64215	1502.00134	-568.72455	300.13733	1493.87598	-544.59863	110.51117	1301.54285	-643.87982	-5.74100	1049.60022	-647.57513	241.24603	1060.16333	-842.89368	95.63508	1072.37378	-712.23596	-72.50950	875.08307	-631.08246	-5.44853	810.07166	-723.94556	-60.65263	758.71686	-733.52350	-34.70913	616.85565	-717.10815	75.57190	574.38434	-737.00641	-32.33755	569.82288	-685.46124	17.79173	523.55463	-775.13989	-45.24361	487.49240	-760.33197	-20.59630	206.35393	-648.70386	-66.74057	162.44220	-606.23315	-71.80253	158.53018	-549.47705	-25.16960	164.42644	-600.59918	28.53976	166.94836	-721.66718	69.23689	216.64352	-674.79517	54.09009	159.58952	-794.17285	37.69127	174.30231	-732.66302	286.00790	874.60706	-632.76917	223.69116	796.17712	-733.25757	274.24911	743.09064	-757.00397	253.07120	640.52277	-717.02924	144.99272	576.01282	-754.26788	248.62238	574.72711	-698.06818	206.87082	536.70618	-789.63220	259.53128	499.17621	-769.74146	228.04388	204.48495	-660.19482	297.51453	157.33002	-623.76184	306.04483	159.12630	-556.07941	255.05865	164.85721	-592.77234	217.42458	174.54723	-714.95837	154.43309	218.38052	-675.74817	171.96669	159.16582	-796.36853	179.35805	183.58006	-528.02277	304.45172	146.74785	-517.86072	-72.90918	143.21890	-875.81995	-78.73212	141.30650	-882.45667	296.22620	144.80052	
63	1.240	-395.68457	140.49515	1770.07117	-533.46802	-59.32016	1495.73804	-560.07007	299.78897	1487.96143	-541.35107	110.33195	1295.40662	-647.93915	-5.68970	1048.58484	-651.73853	241.31761	1059.54980	-846.73499	95.48915	1073.65076	-716.69031	-72.61073	875.09460	-635.28979	-5.52171	810.32764	-727.96313	-60.57991	758.51752	-736.55768	-34.86129	616.84509	-719.95276	75.45834	574.41156	-739.75311	-32.49391	569.85510	-687.94208	17.66536	523.90466	-777.32196	-45.43657	487.25580	-760.50378	-20.90406	206.31268	-648.72784	-66.84563	162.34198	-606.21777	-71.81528	158.46889	-549.55151	-24.89754	164.24081	-600.66174	28.54507	167.00717	-722.07733	68.78934	216.76884	-674.97888	53.86446	159.78479	-794.38855	37.36743	174.25615	-737.18048	286.11041	874.60803	-636.83984	223.56882	796.36884	-736.85620	274.49841	742.93274	-759.84302	253.19487	640.24896	-719.61334	145.00562	575.98401	-756.74323	248.69704	574.56134	-700.27368	206.89252	536.90948	-791.57550	259.68808	498.80679	-769.85760	228.11246	204.40344	-660.17670	297.50348	157.27333	-623.71472	306.05670	159.13484	-556.10431	254.98264	164.76675	-592.77795	217.44035	174.44977	-715.20148	154.63072	218.48775	-675.75983	172.08437	159.26941	-796.44287	179.43478	183.49146	-527.99188	304.32986	146.69174	-517.87018	-72.92050	143.20932	-875.74396	-78.75901	141.27119	-882.49042	296.24344	144.80153	
64	1.260	-381.89645	140.48485	1760.41553	-523.85620	-58.94924	1488.80103	-551.40631	299.35385	1481.38599	-537.89722	110.25322	1288.70276	-651.99854	-5.60026	1047.41406	-656.01660	241.38454	1058.90894	-850.56042	95.33745	1074.86121	-721.08380	-72.72945	875.07477	-639.49084	-5.46935	810.48352	-731.87299	-60.58844	758.33447	-739.55017	-35.05732	616.81433	-722.89789	75.30344	574.41443	-742.51465	-32.64403	569.82629	-690.42004	17.49464	524.24750	-779.48071	-45.68284	487.03098	-760.61816	-21.20424	206.25644	-648.73645	-66.94199	162.26332	-606.17389	-71.83155	158.38014	-549.60187	-24.58818	163.99855	-600.71545	28.54062	167.06609	-722.52643	68.42854	216.97372	-675.17688	53.62903	159.95296	-794.58801	37.03637	174.22318	-741.59216	286.21658	874.56970	-640.79938	223.43657	796.57983	-740.34357	274.75220	742.76874	-762.64117	253.30502	639.96521	-722.16766	144.99530	575.92712	-759.16095	248.74432	574.34174	-702.50446	206.87529	537.03021	-793.49152	259.81339	498.41183	-769.96606	228.18422	204.31604	-660.15918	297.50986	157.23941	-623.66394	306.08957	159.12291	-556.12128	254.89600	164.65973	-592.80121	217.44414	174.32187	-715.40619	154.81859	218.55026	-675.73022	172.17004	159.37675	-796.59741	179.46852	183.45354	-527.96997	304.22653	146.62576	-517.88483	-72.92566	143.20511	-875.68439	-78.77834	141.24210	-882.52631	296.24985	144.79201	
65	1.280	-368.10983	140.47360	1750.03345	-514.13672	-58.53019	1481.23523	-542.75104	298.88303	1474.18542	-534.25549	110.27716	1281.45642	-656.06183	-5.49866	1046.12463	-660.36096	241.42633	1058.18579	-854.36243	95.16068	1076.03101	-725.45117	-72.82545	875.01324	-643.66229	-5.33554	810.57690	-735.65930	-60.70763	758.20239	-742.50128	-35.27871	616.78619	-725.88257	75.11660	574.39868	-745.29736	-32.74773	569.70587	-692.87524	17.32292	524.56464	-781.61719	-45.95585	486.80753	-760.70752	-21.50141	206.19080	-648.72955	-67.02438	162.19696	-606.10687	-71.84980	158.26830	-549.61853	-24.26301	163.73940	-600.75769	28.54763	167.11302	-722.97729	68.18192	217.25626	-675.34723	53.39661	160.10999	-794.75409	36.71947	174.21225	-745.93140	286.31686	874.47778	-644.70166	223.29698	796.80286	-743.73877	275.01297	742.59308	-765.45703	253.36458	639.65912	-724.71094	144.97197	575.83972	-761.55298	248.77805	574.07538	-704.75372	206.83322	537.09052	-795.42749	259.90598	498.00250	-770.07196	228.26085	204.23358	-660.13995	297.52609	157.23061	-623.61670	306.12656	159.09470	-556.11804	254.79207	164.54057	-592.83154	217.44301	174.17508	-715.58923	154.97470	218.58588	-675.68665	172.24255	159.47993	-796.79944	179.46669	183.47824	-527.95947	304.16998	146.56393	-517.90137	-72.91572	143.21008	-875.67303	-78.78292	141.23802	-882.55334	296.23608	144.76605	
66	1.300	-354.37103	140.47510	1739.01428	-504.41022	-58.06575	1473.10181	-534.09180	298.43961	1466.40979	-530.49481	110.37229	1273.71167	-660.14441	-5.40619	1044.73889	-664.67529	241.43224	1057.31616	-858.11896	94.95202	1077.20105	-729.83362	-72.88834	874.91541	-647.80688	-5.19905	810.64728	-739.37628	-60.89787	758.10120	-745.43420	-35.49266	616.77112	-728.86218	74.91944	574.37018	-748.10785	-32.78870	569.50519	-695.30579	17.18630	524.83435	-783.74146	-46.23463	486.56274	-760.81079	-21.80223	206.12424	-648.70807	-67.09316	162.13583	-606.03345	-71.86171	158.14388	-549.59479	-23.94311	163.50645	-600.79303	28.57984	167.13963	-723.39301	68.03561	217.57545	-675.46753	53.17140	160.25381	-794.88538	36.42961	174.22408	-750.29138	286.39365	874.31445	-648.62921	223.16763	797.01337	-747.11139	275.28748	742.40320	-768.34271	253.36763	639.32501	-727.27576	144.94720	575.72821	-763.97015	248.81952	573.77771	-707.01068	206.80072	537.14246	-797.42542	259.97824	497.58417	-770.17725	228.34204	204.15773	-660.12555	297.55362	157.24989	-623.57709	306.15085	159.06114	-556.07837	254.66367	164.40685	-592.85718	217.44188	174.03580	-715.76862	155.09131	218.61681	-675.66565	172.34302	159.56099	-797.00665	179.44275	183.55615	-527.95563	304.15903	146.51608	-517.91583	-72.89048	143.22252	-875.71838	-78.77565	141.26682	-882.56232	296.20755	144.72839	
